<?xml version="1.0" standalone="no"?>
<!DOCTYPE svg PUBLIC "-//W3C//DTD SVG 20010904//EN"
 "http://www.w3.org/TR/2001/REC-SVG-20010904/DTD/svg10.dtd">
<svg version="1.0" xmlns="http://www.w3.org/2000/svg"
 width="367.000000pt" height="367.000000pt" viewBox="0 0 367.000000 367.000000"
 preserveAspectRatio="xMidYMid meet">
<metadata>
Created by potrace 1.14, written by Peter Selinger 2001-2017
</metadata>
<g transform="translate(0.000000,367.000000) scale(0.100000,-0.100000)"
fill="#000000" stroke="none">
<path d="M1700 3480 c-19 -4 -48 -10 -65 -13 -89 -18 -287 -104 -339 -148 -6
-5 -22 -19 -36 -30 -14 -12 -36 -31 -50 -43 -42 -35 -118 -133 -145 -186 -26
-51 -31 -54 -107 -65 -55 -7 -156 -58 -210 -105 -137 -120 -185 -319 -119
-492 9 -23 4 -32 -44 -81 -112 -115 -154 -270 -115 -419 12 -45 62 -142 86
-166 8 -8 12 -22 10 -31 -45 -151 -27 -340 45 -468 111 -198 274 -310 519
-359 19 -4 151 -6 293 -6 234 1 257 -1 258 -16 6 -104 5 -105 -57 -116 -82
-15 -211 -73 -261 -119 -13 -11 -40 -21 -63 -23 -114 -9 -214 -97 -254 -226
-3 -9 -25 -26 -50 -37 -58 -27 -104 -74 -133 -138 l-24 -53 -59 0 c-34 0 -61
-5 -67 -12 -21 -28 -22 -49 -3 -68 19 -19 36 -20 927 -15 500 3 999 5 1110 5
218 0 233 3 233 55 0 32 -27 45 -93 45 l-54 0 -18 47 c-22 57 -93 129 -144
144 -32 10 -39 17 -49 53 -23 88 -128 185 -215 199 -21 3 -54 19 -75 35 -20
16 -55 38 -77 50 -45 22 -164 60 -209 65 -28 3 -29 5 -29 63 l-1 59 130 5 129
5 13 28 c12 25 12 31 -4 48 -15 17 -31 19 -140 19 -68 0 -125 4 -128 9 -5 7
95 166 114 181 3 3 20 27 38 54 38 59 55 115 46 153 -10 39 -46 93 -62 93 -8
0 -16 8 -19 19 -4 15 -14 18 -57 16 -61 -2 -116 -21 -116 -41 0 -8 -4 -14 -8
-14 -5 0 -29 -29 -53 -65 -24 -36 -47 -65 -51 -65 -4 0 -18 15 -30 34 -87 131
-182 254 -208 269 -35 21 -100 21 -142 0 -70 -34 -106 -140 -71 -208 20 -38
85 -127 104 -141 24 -17 52 -10 68 17 14 25 12 30 -37 102 -29 42 -52 82 -52
89 0 27 31 58 58 58 23 0 41 -21 137 -157 61 -87 122 -170 136 -185 35 -36 61
-28 101 31 18 25 35 48 40 49 4 2 8 8 8 14 0 9 42 69 67 96 28 30 93 -1 88
-43 -2 -24 -25 -60 -145 -227 l-55 -78 1 -135 1 -135 -67 0 -67 0 0 98 c-1 53
-2 115 -2 137 -1 32 -12 56 -57 118 -59 81 -85 95 -118 61 -24 -23 -20 -35 29
-107 48 -71 55 -96 28 -98 -85 -4 -489 0 -527 6 -128 19 -245 80 -341 179
-139 143 -186 316 -136 506 17 66 18 77 5 95 -91 128 -115 189 -108 283 8 98
76 211 159 262 44 27 50 50 27 97 -120 234 23 481 293 508 31 3 61 7 65 10 5
3 25 38 45 79 91 184 285 323 533 379 82 19 276 19 361 0 235 -54 430 -192
517 -367 41 -84 50 -92 109 -95 66 -3 94 -10 147 -37 130 -66 200 -181 194
-322 -1 -48 -10 -84 -29 -126 -15 -32 -27 -64 -27 -71 0 -7 15 -24 33 -38 121
-93 170 -176 171 -292 1 -72 -20 -145 -55 -195 -15 -21 -18 -55 -22 -215 -4
-163 -8 -199 -27 -252 -81 -229 -285 -374 -550 -390 -102 -6 -120 -13 -120
-47 0 -44 15 -51 97 -51 78 1 166 10 181 19 5 3 21 7 35 10 48 8 174 75 234
123 207 165 287 401 228 670 -6 26 -3 39 17 65 130 175 103 433 -61 581 l-42
38 17 47 c26 76 27 185 2 270 -11 39 -24 72 -27 72 -3 0 -12 12 -18 28 -42 91
-196 191 -322 208 -50 6 -51 7 -92 78 -50 84 -160 197 -244 251 -113 72 -269
132 -375 145 -53 6 -281 6 -310 0z m385 -2848 c98 -27 155 -54 194 -93 25 -24
48 -35 85 -41 63 -9 123 -50 149 -101 18 -36 22 -51 26 -99 1 -19 25 -35 65
-42 55 -10 134 -81 113 -102 -8 -8 -1767 -13 -1767 -5 0 11 33 55 55 73 11 9
42 22 68 29 51 12 61 24 71 89 14 86 86 147 182 156 46 4 66 11 89 33 61 56
189 109 300 124 80 11 302 -2 370 -21z"/>
<path d="M1699 558 c-1 -2 -2 -45 -3 -95 -1 -83 1 -93 16 -93 16 0 18 11 18
95 0 78 -3 95 -15 95 -8 0 -16 -1 -16 -2z"/>
<path d="M1548 543 c-3 -7 -3 -33 1 -145 1 -17 7 -28 19 -30 26 -6 84 9 93 24
14 21 10 58 -6 64 -12 5 -12 9 2 30 14 23 14 26 -2 44 -13 14 -31 20 -61 20
-24 0 -44 -3 -46 -7z m71 -22 c19 -12 6 -41 -19 -41 -13 0 -20 7 -20 18 0 31
14 39 39 23z m5 -77 c22 -9 20 -31 -4 -44 -26 -14 -40 -5 -40 26 0 24 13 30
44 18z"/>
<path d="M1953 499 c-70 -26 -45 -141 29 -133 13 1 26 3 31 3 4 1 7 7 7 15 0
10 -8 13 -21 11 -24 -5 -64 13 -54 23 4 4 23 7 43 7 27 0 38 5 40 18 7 35 -39
70 -75 56z m41 -34 c4 -11 -2 -15 -26 -15 -26 0 -29 2 -18 15 7 8 18 15 25 15
7 0 15 -7 19 -15z"/>
<path d="M2091 501 c-38 -10 -49 -36 -27 -60 11 -12 26 -21 33 -21 8 0 13 -6
10 -12 -2 -7 -16 -12 -31 -11 -32 2 -36 -24 -3 -29 60 -10 94 50 42 74 -30 14
-35 43 -5 35 13 -3 20 0 20 8 0 19 -11 23 -39 16z"/>
<path d="M1767 493 c-3 -7 -3 -24 2 -92 1 -19 36 -38 56 -32 6 2 21 3 35 2 24
-1 25 1 26 64 0 56 -2 65 -18 65 -15 0 -18 -8 -18 -44 0 -49 -24 -82 -41 -55
-5 8 -9 33 -9 57 0 30 -4 42 -14 42 -8 0 -17 -3 -19 -7z"/>
<path d="M1640 275 c0 -55 0 -55 30 -55 22 0 33 6 40 23 6 16 9 18 9 5 1 -22
33 -39 51 -28 10 6 7 9 -11 12 -27 3 -24 23 4 22 13 0 17 5 15 20 -4 26 -45
35 -54 12 -3 -9 -12 -16 -20 -16 -8 0 -14 -9 -14 -20 0 -13 -7 -20 -18 -20
-26 0 -23 30 3 40 44 17 36 60 -12 60 -21 0 -23 -4 -23 -55z m46 34 c3 -6 0
-15 -7 -20 -14 -8 -32 9 -23 23 7 11 22 10 30 -3z m79 -29 c3 -5 -3 -10 -15
-10 -12 0 -18 5 -15 10 3 6 10 10 15 10 5 0 12 -4 15 -10z"/>
<path d="M1900 319 c0 -5 5 -7 10 -4 6 3 10 8 10 11 0 2 -4 4 -10 4 -5 0 -10
-5 -10 -11z"/>
<path d="M1800 258 c0 -43 7 -47 15 -8 2 12 9 28 16 36 9 11 7 14 -10 14 -18
0 -21 -6 -21 -42z"/>
<path d="M1850 260 c0 -22 4 -40 9 -40 5 0 8 8 6 18 -1 9 4 27 11 40 13 20 13
22 -6 22 -17 0 -20 -7 -20 -40z"/>
<path d="M1900 258 c0 -23 3 -38 7 -34 10 10 11 76 1 76 -4 0 -8 -19 -8 -42z"/>
<path d="M1945 290 c-13 -21 -13 -49 0 -60 20 -17 84 -18 104 -3 14 12 14 15
-8 33 -21 18 -20 25 2 21 4 0 7 4 7 9 0 13 -23 13 -37 -1 -8 -8 -13 -8 -17 0
-9 14 -43 14 -51 1z m40 -10 c3 -5 -3 -10 -15 -10 -12 0 -18 5 -15 10 3 6 10
10 15 10 5 0 12 -4 15 -10z m55 -41 c0 -16 -83 -6 -88 10 -3 10 2 13 22 9 14
-3 26 -1 26 4 0 5 9 4 20 -2 11 -6 20 -15 20 -21z"/>
<path d="M2154 3221 c-6 -9 -9 -127 -9 -269 1 -224 -1 -252 -15 -246 -96 40
-185 11 -222 -74 -29 -65 -18 -122 32 -172 76 -76 190 -60 245 33 24 43 25 48
25 236 l0 191 28 -17 c67 -42 126 -133 103 -156 -16 -16 -13 -42 4 -57 45 -37
131 159 102 231 -6 13 -12 32 -14 43 -6 30 -44 72 -113 122 -73 53 -85 66
-105 110 -16 36 -47 49 -61 25z"/>
<path d="M1207 2948 c-10 -5 -24 -25 -32 -44 -8 -19 -21 -42 -29 -50 -9 -8
-19 -21 -23 -28 -5 -7 -47 -41 -96 -76 -94 -67 -144 -120 -153 -160 -3 -14 -9
-33 -15 -42 -14 -27 -11 -128 6 -185 40 -135 116 -206 147 -138 9 19 8 29 -5
49 -14 20 -14 30 -5 58 23 69 84 140 147 173 l31 16 1 -173 c0 -95 0 -203 -1
-240 -2 -104 13 -144 78 -204 63 -59 117 -79 187 -72 82 10 153 81 169 169 18
104 -71 213 -181 223 -39 3 -104 -11 -113 -24 -3 -4 -15 -10 -27 -14 l-23 -7
0 373 c0 205 -4 379 -9 387 -12 18 -32 22 -54 9z"/>
<path d="M2528 2293 c-10 -3 -18 -9 -18 -14 0 -25 -57 -91 -111 -129 -33 -23
-71 -54 -85 -68 -29 -32 -55 -117 -48 -158 8 -48 26 -109 33 -114 3 -3 11 -14
17 -24 6 -11 18 -24 28 -30 26 -17 47 16 34 52 -9 22 -7 36 11 70 19 37 90
102 111 102 4 0 7 -82 6 -182 -2 -132 1 -190 11 -210 56 -115 266 -93 288 30
7 39 -21 91 -57 110 -56 27 -95 30 -168 11 -12 -3 -14 35 -15 268 0 167 -4
276 -10 281 -6 5 -18 7 -27 5z"/>
</g>
</svg>
